<svg width="60" height="60" viewBox="0 0 60 60" fill="none" xmlns="http://www.w3.org/2000/svg">
<g clip-path="url(#clip0_9_2)">
<path d="M60 30C60 13.4315 46.5685 0 30 0C13.4315 0 0 13.4315 0 30C0 46.5685 13.4315 60 30 60C46.5685 60 60 46.5685 60 30Z" fill="#BBE9F3"/>
<path d="M9 33.75C9 30.4363 11.6863 27.75 15 27.75V39.75C11.6863 39.75 9 37.0637 9 33.75Z" fill="#AC7F5E"/>
<path d="M51 33.75C51 30.4363 48.3137 27.75 45 27.75V41.25C48.3137 41.25 51 38.5637 51 35.25V33.75Z" fill="#AC7F5E"/>
<path d="M38.25 21H21.75C17.1937 21 13.5 24.6937 13.5 29.25V39.75C13.5 44.3063 17.1937 48 21.75 48H38.25C42.8063 48 46.5 44.3063 46.5 39.75V29.25C46.5 24.6937 42.8063 21 38.25 21Z" fill="white"/>
<path d="M32.25 12.75C32.25 11.5074 31.2426 10.5 30 10.5C28.7574 10.5 27.75 11.5074 27.75 12.75V15.75C27.75 16.9926 28.7574 18 30 18C31.2426 18 32.25 16.9926 32.25 15.75V12.75Z" fill="#4A6B35"/>
<path d="M33.5859 38.9413C31.819 40.7083 28.2852 40.7083 26.5183 38.9413" stroke="#522504" stroke-width="1.5" stroke-linecap="round"/>
<path d="M35.7838 30.1055H35.25C34.4216 30.1055 33.75 30.777 33.75 31.6055V33.9061C33.75 34.7346 34.4216 35.4061 35.25 35.4061H35.7838C36.6122 35.4061 37.2838 34.7346 37.2838 33.9061V31.6055C37.2838 30.777 36.6122 30.1055 35.7838 30.1055Z" fill="#2A5810"/>
<path d="M24.7505 30.1055H24.2167C23.3883 30.1055 22.7167 30.777 22.7167 31.6055V33.9061C22.7167 34.7346 23.3883 35.4061 24.2167 35.4061H24.7505C25.579 35.4061 26.2505 34.7346 26.2505 33.9061V31.6055C26.2505 30.777 25.579 30.1055 24.7505 30.1055Z" fill="#2A5810"/>
</g>
<defs>
<clipPath id="clip0_9_2">
<rect width="60" height="60" fill="white"/>
</clipPath>
</defs>
</svg>
